<svg xmlns="http://www.w3.org/2000/svg" viewBox="0 0 800 400" fill="none">
  
  <defs>
    <pattern id="grid1" width="40" height="40" patternUnits="userSpaceOnUse">
      <path d="M40 0H0V40" stroke="#0E1E3A" stroke-opacity="0.06" stroke-width="0.5" fill="none"></path>
    </pattern>
  </defs>
  <rect width="800" height="400" fill="#F5F0E6"></rect>
  <rect width="800" height="400" fill="url(#grid1)"></rect>
  
  <g font-family="&#39;JetBrains Mono&#39;,monospace" font-size="10" fill="#0E1E3A" fill-opacity="0.5">
    <text x="14" y="60">4,800</text>
    <text x="14" y="140">4,400</text>
    <text x="14" y="220">4,000</text>
    <text x="14" y="300">3,600</text>
    <text x="14" y="380">3,200</text>
  </g>
  
  <g font-family="Inter,sans-serif" font-size="10" font-weight="600" letter-spacing="1.5" fill="#0E1E3A" fill-opacity="0.5">
    <text x="120" y="395">JAN</text>
    <text x="240" y="395">FEB</text>
    <text x="360" y="395">MAR</text>
    <text x="480" y="395">APR</text>
    <text x="600" y="395">MAY</text>
    <text x="720" y="395">JUN</text>
  </g>
  
  <path d="M 60 280 L 120 250 L 180 270 L 240 220 L 300 240 L 360 180 L 420 200 L 480 150 L 540 170 L 600 130 L 660 110 L 720 90 L 780 100" stroke="#0E1E3A" stroke-width="1.5" fill="none"></path>
  
  <path d="M 60 300 L 120 290 L 180 310 L 240 280 L 300 290 L 360 260 L 420 250 L 480 240 L 540 230 L 600 200 L 660 220 L 720 180 L 780 190" stroke="#A8884A" stroke-width="1.5" stroke-dasharray="4 3" fill="none"></path>
  
  <circle cx="780" cy="100" r="3" fill="#0E1E3A"></circle>
  <circle cx="780" cy="190" r="3" fill="#A8884A"></circle>
  
  <text x="60" y="40" font-family="Inter,sans-serif" font-size="10" font-weight="600" letter-spacing="2" fill="#0E1E3A">FIG. 1 · EQUITY INDEX, YTD</text>
  <line x1="60" y1="50" x2="200" y2="50" stroke="#0E1E3A" stroke-width="1"></line>
</svg>