<svg xmlns="http://www.w3.org/2000/svg" viewBox="0 0 1600 900" fill="none">
  
  <rect width="1600" height="900" fill="#0E1E3A"></rect>
  
  <g stroke="#F5F0E6" stroke-opacity="0.05" stroke-width="0.5">
    <path d="M0 150 H1600 M0 300 H1600 M0 450 H1600 M0 600 H1600 M0 750 H1600"></path>
    <path d="M200 0 V900 M400 0 V900 M600 0 V900 M800 0 V900 M1000 0 V900 M1200 0 V900 M1400 0 V900"></path>
  </g>
  
  <g>
    <g stroke="#A8884A" stroke-width="1">
      <line x1="100" y1="500" x2="100" y2="640"></line>
      <line x1="160" y1="450" x2="160" y2="600"></line>
      <line x1="220" y1="430" x2="220" y2="580"></line>
      <line x1="280" y1="400" x2="280" y2="560"></line>
      <line x1="340" y1="380" x2="340" y2="540"></line>
      <line x1="400" y1="360" x2="400" y2="520"></line>
      <line x1="460" y1="340" x2="460" y2="500"></line>
      <line x1="520" y1="320" x2="520" y2="480"></line>
      <line x1="580" y1="300" x2="580" y2="460"></line>
    </g>
    <g fill="#A8884A" fill-opacity="0.18" stroke="#A8884A" stroke-width="1">
      <rect x="92" y="540" width="16" height="60"></rect>
      <rect x="152" y="490" width="16" height="70"></rect>
      <rect x="212" y="470" width="16" height="70"></rect>
      <rect x="272" y="440" width="16" height="80"></rect>
      <rect x="332" y="420" width="16" height="80"></rect>
      <rect x="392" y="400" width="16" height="80"></rect>
      <rect x="452" y="380" width="16" height="80"></rect>
      <rect x="512" y="360" width="16" height="80"></rect>
      <rect x="572" y="340" width="16" height="80"></rect>
    </g>
  </g>
  
  <path d="M 50 700 Q 400 500 800 400 T 1550 200" stroke="#F5F0E6" stroke-opacity="0.25" stroke-width="1.5" fill="none"></path>
</svg>